<svg xmlns="http://www.w3.org/2000/svg" width="1920" height="1141.162" viewBox="0 0 1920 1141.162">
  <g id="layered-waves-haikei" transform="translate(0 -1778)">
    <path id="Trazado_31" data-name="Trazado 31" d="M0,1885.3l45.7-12.317c45.6-12.224,137-36.857,228.5-53.746,91.5-16.982,183.1-26.313,274.6,28.552,91.5,54.959,182.9,174.02,274.2,219.461s182.7,17.075,274,6.812,182.7-2.426,274.2-30.605,183.1-92.189,274.6-142.482c91.5-50.2,182.9-86.59,228.5-104.785L1920,1778V2919.162H0Z" transform="translate(0 0)" fill="#a929ff"/>
    <path id="Trazado_32" data-name="Trazado 32" d="M0,2213.028,45.7,2235.9c45.6,22.781,137,68.526,228.5,56.273s183.1-82.5,274.6-99.839c91.5-17.427,182.9,17.971,274.2,11.345,91.3-6.716,182.7-55.365,274-75.7,91.3-20.24,182.7-12.072,274.2-6.444,91.5,5.536,183.1,8.622,274.6,34.944s182.9,75.878,228.5,100.746l45.7,24.778v637.154H0Z" fill="#781dd6"/>
    <path id="Trazado_33" data-name="Trazado 33" d="M0,2643l45.7-26.5c45.6-26.5,137-79.5,228.5-85.2,91.5-5.6,183.1,36,274.6,59.9,91.5,23.8,182.9,29.8,274.2,18.6,91.3-11.1,182.7-39.5,274-95.8s182.7-140.7,274.2-169.2,183.1-1.1,274.6,30.4,182.9,67.1,228.5,85L1920,2478v523H0Z" transform="translate(0 -81.838)" fill="#4a10ae"/>
    <path id="Trazado_34" data-name="Trazado 34" d="M0,2679l45.7-19.3c45.6-19.4,137-58,228.5-69.5s183.1,4.1,274.6,17.6S731.7,2632.7,823,2667s182.7,91.7,274,78.2,182.7-97.9,274.2-99c91.5-1.2,183.1,80.8,274.6,86.5,91.5,5.6,182.9-65,228.5-100.4L1920,2597v404H0Z" transform="translate(0 -81.838)" fill="#150485"/>
  </g>
</svg>
