<svg id="visual" viewBox="0 0 1920 1080" width="1920" height="1080" xmlns="http://www.w3.org/2000/svg" xmlns:xlink="http://www.w3.org/1999/xlink" version="1.1"><path d="M0 504L53.3 519.2C106.7 534.3 213.3 564.7 320 594.7C426.7 624.7 533.3 654.3 640 647.2C746.7 640 853.3 596 960 555C1066.7 514 1173.3 476 1280 466C1386.7 456 1493.3 474 1600 459.3C1706.7 444.7 1813.3 397.3 1866.7 373.7L1920 350L1920 0L1866.7 0C1813.3 0 1706.7 0 1600 0C1493.3 0 1386.7 0 1280 0C1173.3 0 1066.7 0 960 0C853.3 0 746.7 0 640 0C533.3 0 426.7 0 320 0C213.3 0 106.7 0 53.3 0L0 0Z" fill="#E1D2EC" stroke-linecap="round" stroke-linejoin="miter"></path></svg>