<svg id="visual" viewBox="0 0 1920 1080" width="1920" height="1080" xmlns="http://www.w3.org/2000/svg" xmlns:xlink="http://www.w3.org/1999/xlink" version="1.1"><g transform="translate(-12.043958117355771 60.30255956298507)"><path d="M246.1 -429.6C312.2 -388.1 354.4 -308.6 362.4 -230.6C370.4 -152.7 344.2 -76.3 343.6 -0.3C343.1 75.7 368.1 151.3 337.6 190.3C307.1 229.3 221.1 231.6 155.5 260.4C90 289.2 45 344.6 -2.7 349.2C-50.3 353.8 -100.7 307.7 -147 267.8C-193.3 227.9 -235.7 194.2 -273.3 150.6C-311 107 -344 53.5 -339.4 2.7C-334.8 -48.2 -292.5 -96.3 -270.2 -166.5C-247.9 -236.6 -245.4 -328.8 -203.7 -384.3C-162 -439.9 -81 -459 4.5 -466.8C90 -474.6 180 -471.1 246.1 -429.6" fill="#590995"></path></g></svg>